<?xml version="1.0" standalone="no"?>
<!DOCTYPE svg PUBLIC "-//W3C//DTD SVG 20010904//EN"
 "http://www.w3.org/TR/2001/REC-SVG-20010904/DTD/svg10.dtd">
<svg version="1.0" xmlns="http://www.w3.org/2000/svg"
 width="856.000000pt" height="856.000000pt" viewBox="0 0 856.000000 856.000000"
 preserveAspectRatio="xMidYMid meet">
<metadata>
Created by potrace 1.11, written by Peter Selinger 2001-2013
</metadata>
<g transform="translate(0.000000,856.000000) scale(0.100000,-0.100000)"
fill="#000000" stroke="none">
<path d="M7640 8169 c-25 -6 -49 -11 -55 -13 -5 -2 -23 -7 -40 -11 -149 -41
-317 -166 -410 -306 -39 -58 -98 -175 -104 -204 -1 -5 -6 -26 -11 -45 -4 -19
-12 -57 -15 -85 -10 -66 -9 -3221 0 -3304 3 -35 16 -94 27 -130 18 -61 65
-169 78 -181 3 -3 14 -18 24 -35 11 -16 25 -37 32 -45 89 -98 161 -159 233
-196 31 -16 58 -32 59 -36 2 -5 14 -8 27 -8 13 0 26 -4 29 -9 3 -5 18 -11 33
-14 16 -3 58 -12 94 -20 90 -18 270 -13 329 10 8 4 17 7 20 7 86 16 242 104
323 182 70 68 177 216 177 245 0 5 7 23 15 39 8 16 16 37 18 47 2 10 10 38 18
63 12 38 14 301 14 1715 0 919 -3 1688 -7 1710 -20 126 -107 291 -208 395
-110 114 -252 194 -397 225 -53 12 -258 14 -303 4z"/>
<path d="M5930 6770 c-209 -26 -419 -156 -537 -332 -49 -74 -77 -127 -75 -140
1 -5 -2 -8 -6 -8 -5 0 -9 -6 -10 -12 -1 -7 -11 -47 -24 -88 l-22 -75 0 -950
c-1 -522 2 -968 6 -990 15 -87 31 -139 76 -235 24 -52 113 -170 158 -210 99
-87 109 -93 207 -142 89 -44 198 -69 317 -72 58 -1 116 1 130 5 14 5 39 10 55
13 29 4 45 8 83 23 9 3 19 7 22 8 3 0 27 11 54 23 27 12 52 22 57 22 5 0 9 4
9 10 0 5 16 17 35 26 19 9 35 20 35 25 0 5 5 9 11 9 17 0 131 121 170 181 33
50 89 159 93 183 2 6 8 31 15 55 7 23 10 45 7 48 -3 3 0 15 6 27 14 25 19
1944 6 1952 -5 3 -6 10 -3 15 9 14 -52 184 -82 232 -15 23 -27 44 -28 47 0 9
-67 92 -95 120 -51 50 -126 107 -180 137 -54 30 -200 87 -200 78 0 -2 -12 0
-26 6 -34 12 -192 18 -264 9z"/>
<path d="M4180 5068 c-25 -4 -52 -9 -60 -11 -8 -2 -30 -7 -49 -11 -130 -31
-283 -135 -401 -273 -54 -63 -131 -224 -144 -303 -3 -19 -8 -46 -11 -60 -8
-35 -8 -177 -1 -226 18 -113 84 -277 134 -332 6 -7 12 -17 12 -21 0 -16 131
-141 187 -179 92 -62 213 -112 311 -128 118 -19 285 -4 390 35 102 38 238 122
283 176 10 11 36 40 58 65 23 24 41 47 41 51 0 3 9 16 20 29 11 12 17 27 14
31 -3 5 -1 9 4 9 11 0 65 126 78 185 24 105 26 347 2 361 -5 3 -6 9 -4 13 6 9
-24 95 -56 161 -25 51 -66 113 -98 150 -12 14 -27 32 -34 40 -11 15 -75 71
-113 100 -61 46 -165 95 -256 120 -82 23 -230 31 -307 18z"/>
<path d="M2439 5056 c-2 -3 -23 -7 -45 -10 -44 -5 -195 -53 -204 -64 -3 -4
-27 -18 -53 -32 -117 -61 -248 -206 -310 -342 -21 -46 -53 -143 -47 -143 1 0
-4 -13 -11 -30 -19 -44 -22 -1878 -4 -1985 65 -379 386 -651 770 -652 60 -1
166 12 184 22 9 4 21 9 26 9 175 25 399 214 497 421 75 156 74 142 72 1200 -2
811 -4 952 -17 998 -8 28 -13 52 -10 52 3 0 1 6 -4 13 -6 6 -16 30 -23 52 -15
46 -57 125 -90 168 -30 39 -85 102 -110 123 -14 12 -36 31 -49 43 -13 12 -28
21 -32 21 -4 0 -14 6 -21 13 -37 35 -190 99 -273 114 -40 7 -241 14 -246 9z"/>
<path d="M717 5044 c-1 -1 -21 -4 -44 -7 -104 -15 -251 -67 -291 -104 -7 -7
-17 -13 -21 -13 -11 0 -77 -52 -126 -100 -49 -48 -53 -53 -98 -120 -20 -30
-41 -60 -47 -67 -5 -7 -10 -17 -10 -23 0 -6 -7 -22 -16 -35 -9 -14 -13 -25
-10 -25 4 0 1 -10 -6 -22 -6 -13 -13 -27 -14 -33 -33 -135 -32 -105 -30 -1800
1 -913 5 -1674 8 -1692 8 -38 35 -120 48 -148 5 -11 14 -31 20 -45 36 -84 124
-192 226 -277 53 -45 205 -120 284 -140 65 -17 262 -24 340 -11 130 20 317
124 416 230 108 116 190 280 208 419 3 19 5 36 6 39 2 7 2 3265 0 3265 -1 0
-3 11 -4 25 -7 67 -31 151 -62 213 -8 16 -14 35 -14 43 0 8 -4 14 -10 14 -5 0
-10 9 -10 20 0 11 -4 20 -8 20 -4 0 -16 15 -27 33 -20 34 -74 96 -114 131 -13
12 -37 33 -53 49 -17 15 -34 27 -38 27 -5 0 -15 6 -22 13 -19 18 -137 73 -188
88 -64 18 -70 19 -117 22 -24 1 -43 4 -43 7 0 5 -128 8 -133 4z"/>
</g>
</svg>
