<?xml version="1.0" encoding="UTF-8" standalone="no"?>
<svg
   xmlns:dc="http://purl.org/dc/elements/1.1/"
   xmlns:cc="http://creativecommons.org/ns#"
   xmlns:rdf="http://www.w3.org/1999/02/22-rdf-syntax-ns#"
   xmlns:svg="http://www.w3.org/2000/svg"
   xmlns="http://www.w3.org/2000/svg"
   xmlns:sodipodi="http://sodipodi.sourceforge.net/DTD/sodipodi-0.dtd"
   xmlns:inkscape="http://www.inkscape.org/namespaces/inkscape"
   viewBox="0 0 107.4 97.9"
   version="1.1"
   id="svg8"
   sodipodi:docname="saverlife-logo.svg"
   inkscape:version="0.92.5 (2060ec1f9f, 2020-04-08)"
   width="107.4"
   height="97.900002">
  <metadata
     id="metadata14">
    <rdf:RDF>
      <cc:Work
         rdf:about="">
        <dc:format>image/svg+xml</dc:format>
        <dc:type
           rdf:resource="http://purl.org/dc/dcmitype/StillImage" />
        <dc:title></dc:title>
      </cc:Work>
    </rdf:RDF>
  </metadata>
  <defs
     id="defs12" />
  <sodipodi:namedview
     pagecolor="#ffffff"
     bordercolor="#666666"
     borderopacity="1"
     objecttolerance="10"
     gridtolerance="10"
     guidetolerance="10"
     inkscape:pageopacity="0"
     inkscape:pageshadow="2"
     inkscape:window-width="2712"
     inkscape:window-height="1587"
     id="namedview10"
     showgrid="false"
     inkscape:zoom="3.0800179"
     inkscape:cx="182.79279"
     inkscape:cy="8.3290245"
     inkscape:window-x="144"
     inkscape:window-y="54"
     inkscape:window-maximized="0"
     inkscape:current-layer="svg8"
     fit-margin-top="0"
     fit-margin-left="0"
     fit-margin-right="0"
     fit-margin-bottom="0" />
  <path
     d="m 31.8,80 c 5.4,0 9.8,-4.4 9.8,-9.8 V 48.9 c 0,-5.4 -4.4,-9.8 -9.8,-9.8 -5.4,0 -9.8,4.4 -9.8,9.8 v 21.3 c 0,5.4 4.4,9.8 9.8,9.8 z M 75.7,58.5 c -5.4,0 -9.8,-4.4 -9.8,-9.8 V 27.4 c 0,-5.4 4.4,-9.8 9.8,-9.8 5.4,0 9.8,4.4 9.8,9.8 v 21.3 c 0,5.4 -4.4,9.8 -9.8,9.8 z m 21.9,0 c -5.4,0 -9.8,-4.4 -9.8,-9.8 V 9.8 c 0,-5.4 4.4,-9.8 9.8,-9.8 5.4,0 9.8,4.4 9.8,9.8 v 38.9 c 0,5.4 -4.4,9.8 -9.8,9.8 z M 9.8,97.9 c 5.4,0 9.8,-4.4 9.8,-9.8 v -39 C 19.6,43.7 15.2,39.3 9.8,39.3 4.4,39.3 0,43.7 0,49.1 V 88 c 0,5.4 4.4,9.9 9.8,9.9 z"
     id="path4"
     inkscape:connector-curvature="0"
     style="fill:#d99cc5" />
  <path
     d="m 53.8,58.5 c -5.4,0 -9.8,-4.4 -9.8,-9.8 0,-5.4 4.4,-9.8 9.8,-9.8 5.4,0 9.8,4.4 9.8,9.8 0,5.4 -4.4,9.8 -9.8,9.8 z m 22,-21.3 c -5.4,0 -9.8,-4.4 -9.8,-9.8 0,-5.4 4.4,-9.8 9.8,-9.8 5.4,0 9.8,4.4 9.8,9.8 0,5.4 -4.5,9.8 -9.8,9.8 z M 97.6,19.6 c -5.4,0 -9.8,-4.4 -9.8,-9.8 0,-5.4 4.4,-9.8 9.8,-9.8 5.4,0 9.8,4.4 9.8,9.8 0,5.4 -4.4,9.8 -9.8,9.8 z M 31.8,80 c 5.4,0 9.8,-4.4 9.8,-9.8 0,-5.4 -4.4,-9.8 -9.8,-9.8 -5.4,0 -9.8,4.4 -9.8,9.8 0,5.4 4.4,9.8 9.8,9.8 z m -22,17.9 c 5.4,0 9.8,-4.4 9.8,-9.8 0,-5.4 -4.4,-9.8 -9.8,-9.8 -5.4,0 -9.8,4.4 -9.8,9.8 0,5.3 4.4,9.8 9.8,9.8 z"
     id="path6"
     inkscape:connector-curvature="0"
     style="fill:#ab2287" />
</svg>
